<svg width="72" height="44" viewBox="0 0 72 44" fill="none" xmlns="http://www.w3.org/2000/svg">
<path d="M38.9869 13.3658L39.9869 13.3658L39.9869 12.3658L39.9869 1.1325C40.0226 1.10652 40.0873 1.06969 40.19 1.04015C40.5004 0.950898 40.8284 1.02084 40.9806 1.1258L41.5482 0.302476L40.9806 1.12581L70.8606 21.723L40.9788 42.2616L40.9775 42.2625C40.8278 42.3658 40.5005 42.4363 40.1862 42.3478C40.0858 42.3185 40.0222 42.282 39.987 42.2563L39.987 30.979L39.987 29.979L38.987 29.979L1.49954 29.979C1.26276 29.979 1.09159 29.911 1.00708 29.8528C1.00459 29.851 1.00223 29.8494 1 29.8478L1 13.497C1.00223 13.4954 1.00459 13.4937 1.00708 13.492C1.09159 13.4337 1.26276 13.3658 1.49954 13.3658L38.9869 13.3658ZM0.965659 29.8186C0.965787 29.8186 0.966973 29.8198 0.968834 29.8223C0.966461 29.8199 0.965531 29.8186 0.965659 29.8186ZM0.965658 13.5262C0.965531 13.5261 0.966461 13.5249 0.968833 13.5225C0.966972 13.525 0.965786 13.5262 0.965658 13.5262Z" stroke="#232323" stroke-width="2"/>
</svg>
