<svg width="20" height="20" viewBox="0 0 20 20" fill="none" xmlns="http://www.w3.org/2000/svg">
<path d="M2.92969 20H17.0703C18.6858 20 20 18.6858 20 17.0703V2.92969C20 1.31424 18.6858 0 17.0703 0H2.92969C1.31424 0 0 1.31424 0 2.92969V17.0703C0 18.6858 1.31424 20 2.92969 20ZM1.17188 2.92969C1.17188 1.96045 1.96045 1.17188 2.92969 1.17188H17.0703C18.0396 1.17188 18.8281 1.96045 18.8281 2.92969V17.0703C18.8281 18.0396 18.0396 18.8281 17.0703 18.8281H2.92969C1.96045 18.8281 1.17188 18.0396 1.17188 17.0703V2.92969Z" fill="#DEDEDE"/>
<path d="M10 15.5469C12.9077 15.5469 15.2734 13.1812 15.2734 10.2734C15.2734 7.36572 12.9077 5 10 5C7.09229 5 4.72656 7.36572 4.72656 10.2734C4.72656 13.1812 7.09229 15.5469 10 15.5469ZM10 6.17188C12.2617 6.17188 14.1016 8.01178 14.1016 10.2734C14.1016 12.5351 12.2617 14.375 10 14.375C7.73834 14.375 5.89844 12.5351 5.89844 10.2734C5.89844 8.01178 7.73834 6.17188 10 6.17188Z" fill="#DEDEDE"/>
<path d="M15.8594 11.5156C16.8286 11.5156 17.6172 10.7271 17.6172 9.75781C17.6172 8.78857 16.8286 8 15.8594 8C14.8901 8 14.1016 8.78857 14.1016 9.75781C14.1016 10.7271 14.8901 11.5156 15.8594 11.5156ZM15.8594 9.17188C16.1824 9.17188 16.4453 9.43478 16.4453 9.75781C16.4453 10.0808 16.1824 10.3438 15.8594 10.3438C15.5363 10.3438 15.2734 10.0808 15.2734 9.75781C15.2734 9.43478 15.5363 9.17188 15.8594 9.17188Z" fill="#DEDEDE"/>
</svg>
