<svg width="24" height="19" viewBox="0 0 24 19" fill="none" xmlns="http://www.w3.org/2000/svg">
<path d="M21.4096 12.6001L21.3966 12.584C21.1917 12.3318 20.564 11.5174 20.3524 11.1614C20.1039 10.7173 20.1612 10.4263 20.3474 9.99028C20.5827 9.43925 21.0542 8.59404 21.5532 7.69903C23.1513 4.83332 24.1831 2.84944 23.9707 1.44027L23.8563 0.68759L17.9542 0.691008C17.9335 0.765226 17.6255 2.56917 16.3259 5.64093C15.3834 7.86822 14.7653 8.56792 14.5475 8.69146L14.5139 8.67778C14.443 8.56109 14.3192 8.24615 14.2683 7.43438C14.2152 6.58404 14.2623 5.55451 14.3079 4.55891C14.3611 3.39143 14.4071 2.38314 14.2971 1.66171L14.1178 0.486419C13.9012 0.440276 13.1082 0.0323193 10.8986 0.00131361C8.98572 -0.0248093 8.42377 0.343597 8.14783 0.668303L7.23505 1.74227L8.38879 2.25985C8.82788 2.45687 8.97363 2.68416 9.0932 3.81087C9.1712 4.54524 9.21204 5.77936 9.12781 6.88116C9.00677 8.46099 8.71655 8.75493 8.70154 8.77056C8.65155 8.74785 8.22766 8.50054 7.49176 6.42609C6.98126 4.98737 6.53375 3.28548 6.20673 2.04281C5.83246 0.619719 5.89984 0.922696 5.70996 0.250336L0 0.250092L0.369507 1.5245C1.90997 6.84259 3.32336 10.9956 5.21484 13.9785C7.30463 17.2742 9.90179 18.9998 13.4002 18.9998H14.1033V18.0623C14.1033 17.1858 14.1577 16.5547 14.2744 16.0762C14.3456 15.7847 14.4402 15.5437 14.5397 15.291C14.6873 14.919 14.8315 14.7595 14.9103 14.7359C14.9817 14.7141 15.1073 14.784 15.2465 14.9224C15.646 15.3196 15.9631 15.8416 16.299 16.3943C16.7834 17.1919 17.2844 18.0164 18.0793 18.5562C18.5136 18.8511 19.3098 19 19.7479 19C19.8638 19 23.9949 18.9998 24 18.9998L23.9698 18.0237C23.9247 16.5642 23.0632 14.7393 21.4096 12.6001ZM19.7752 17.1248H19.7639C19.4617 17.1314 18.8851 16.9993 18.7174 16.8855C18.189 16.5266 17.8196 15.9185 17.3917 15.2144C17.0162 14.596 16.6278 13.9566 16.0871 13.4192C15.6498 12.9844 15.2527 12.8572 14.9374 12.8572C14.8114 12.8572 14.6982 12.8775 14.6012 12.9068C14.2352 13.0166 13.7117 13.3677 13.2955 14.4173C13.1781 14.7158 13.045 15.054 12.9371 15.4964C12.8242 15.9592 12.7538 16.4736 12.7203 17.0994C10.084 16.8997 8.02679 15.509 6.28876 12.7681C4.67285 10.2195 3.40155 6.65485 2.05518 2.12435C2.15259 2.12435 4.59357 2.12484 4.73767 2.12484C4.7818 2.29012 4.82941 2.47127 4.87994 2.66317C5.23242 4.00374 5.71527 5.83942 6.28418 7.40484C7.09882 9.64653 7.84277 10.6463 8.69623 10.6463C9.12231 10.6463 9.50446 10.4056 9.80127 9.94975C10.2244 9.3001 10.4702 8.22784 10.5526 6.67145C10.6176 5.44416 10.5571 4.22175 10.4857 3.54817C10.4268 2.99397 10.3427 2.41219 10.1376 1.89095C11.0116 1.83846 12.1818 1.92147 12.9232 2.06332C12.9906 2.55257 12.9467 3.51424 12.9042 4.44465C12.8015 6.6922 12.6954 9.01152 13.5877 10.0967C13.7446 10.2876 13.9111 10.3899 13.9158 10.3941L14.3699 10.5799C14.5452 10.5079 15.5601 11.1944 17.482 6.72247C18.0978 5.28962 18.6711 3.6385 18.9798 2.56014C19.6957 2.55819 22.1349 2.56185 22.4214 2.56234C22.0155 3.75349 21.0535 5.45246 20.4247 6.58014C19.8765 7.56304 19.4031 8.41192 19.1254 9.0623C18.6094 10.2705 18.6962 11.3474 19.2336 12.2974L19.242 12.312C19.5419 12.8211 20.2826 13.7635 20.4362 13.9534C21.5491 15.3941 22.0854 16.429 22.3407 17.1245H19.7752V17.1248Z" fill="#DEDEDE"/>
</svg>
