<svg width="26" height="26" viewBox="0 0 26 26" fill="none" xmlns="http://www.w3.org/2000/svg">
<path d="M25.7738 24.6741L19.4554 18.3557C21.1503 16.4071 22.1765 13.8647 22.1765 11.086C22.1765 4.9694 17.2013 0 11.0904 0C4.9738 0 0.00439453 4.97517 0.00439453 11.086C0.00439453 17.1969 4.97956 22.1721 11.0904 22.1721C13.8691 22.1721 16.4115 21.1459 18.3601 19.451L24.6785 25.7694C24.8283 25.9193 25.0301 26 25.2261 26C25.4221 26 25.6239 25.9251 25.7738 25.7694C26.0736 25.4696 26.0736 24.9738 25.7738 24.6741ZM1.55517 11.086C1.55517 5.82838 5.83278 1.55654 11.0847 1.55654C16.3423 1.55654 20.6142 5.83415 20.6142 11.086C20.6142 16.3379 16.3423 20.6213 11.0847 20.6213C5.83278 20.6213 1.55517 16.3437 1.55517 11.086Z" fill="#131212" fill-opacity="0.66"/>
</svg>
