<svg width="53" height="17" viewBox="0 0 53 17" fill="none" xmlns="http://www.w3.org/2000/svg">
<path d="M10.7173 14H9.56689V7.52441H1.84814V14H0.707031V0.492188H1.84814V6.55957H9.56689V0.492188H10.7173V14ZM20.2358 14C20.1245 13.6846 20.0534 13.2176 20.0225 12.5991C19.6328 13.1063 19.1349 13.499 18.5288 13.7773C17.9289 14.0495 17.2918 14.1855 16.6177 14.1855C15.6528 14.1855 14.8704 13.9165 14.2705 13.3784C13.6768 12.8403 13.3799 12.16 13.3799 11.3374C13.3799 10.3602 13.785 9.58708 14.5952 9.01807C15.4116 8.44906 16.5465 8.16455 18 8.16455H20.0132V7.02344C20.0132 6.30599 19.7905 5.74316 19.3452 5.33496C18.9061 4.92057 18.2629 4.71338 17.4155 4.71338C16.6424 4.71338 16.0023 4.9113 15.4951 5.30713C14.988 5.70296 14.7344 6.1792 14.7344 6.73584L13.6211 6.72656C13.6211 5.92871 13.9922 5.2391 14.7344 4.65771C15.4766 4.07015 16.3888 3.77637 17.4712 3.77637C18.5907 3.77637 19.472 4.05778 20.1152 4.62061C20.7646 5.17725 21.0986 5.95654 21.1172 6.9585V11.7085C21.1172 12.6795 21.2192 13.4062 21.4233 13.8887V14H20.2358ZM16.7476 13.2021C17.4897 13.2021 18.1515 13.0228 18.7329 12.6641C19.3205 12.3053 19.7472 11.826 20.0132 11.2261V9.01807H18.0278C16.9207 9.03044 16.0549 9.23454 15.4302 9.63037C14.8055 10.02 14.4932 10.5581 14.4932 11.2446C14.4932 11.8075 14.7004 12.2744 15.1147 12.6455C15.5353 13.0166 16.0796 13.2021 16.7476 13.2021ZM29.9678 6.61523C29.9678 6.00911 29.742 5.54215 29.2905 5.21436C28.839 4.88656 28.2174 4.72266 27.4258 4.72266C26.7083 4.72266 26.0929 4.9082 25.5796 5.2793C25.0724 5.64421 24.8188 6.10807 24.8188 6.6709H23.7148C23.7148 5.83594 24.0705 5.14632 24.7817 4.60205C25.4992 4.05778 26.3805 3.78564 27.4258 3.78564C28.5762 3.78564 29.473 4.03304 30.1162 4.52783C30.7594 5.02262 31.0811 5.72461 31.0811 6.63379C31.0811 7.11621 30.9326 7.55225 30.6357 7.94189C30.3389 8.33154 29.9059 8.6346 29.3369 8.85107C30.6234 9.20361 31.2666 10.0015 31.2666 11.2446C31.2666 12.1476 30.9172 12.862 30.2183 13.3877C29.5194 13.9134 28.5916 14.1763 27.4351 14.1763C26.3156 14.1763 25.3879 13.8949 24.6519 13.332C23.9159 12.7692 23.5479 12.0332 23.5479 11.124H24.6611C24.6611 11.7301 24.9271 12.2373 25.459 12.6455C25.9971 13.0475 26.6558 13.2485 27.4351 13.2485C28.2824 13.2485 28.9442 13.0723 29.4204 12.7197C29.9028 12.361 30.144 11.8755 30.144 11.2632C30.144 10.589 29.9245 10.1035 29.4854 9.80664C29.0462 9.50977 28.3752 9.36133 27.4722 9.36133H25.9414V8.39648H27.6577C29.1978 8.35938 29.9678 7.76562 29.9678 6.61523ZM40.0522 14C39.9409 13.6846 39.8698 13.2176 39.8389 12.5991C39.4492 13.1063 38.9513 13.499 38.3452 13.7773C37.7453 14.0495 37.1082 14.1855 36.4341 14.1855C35.4692 14.1855 34.6868 13.9165 34.0869 13.3784C33.4932 12.8403 33.1963 12.16 33.1963 11.3374C33.1963 10.3602 33.6014 9.58708 34.4116 9.01807C35.228 8.44906 36.363 8.16455 37.8164 8.16455H39.8296V7.02344C39.8296 6.30599 39.6069 5.74316 39.1616 5.33496C38.7225 4.92057 38.0793 4.71338 37.2319 4.71338C36.4588 4.71338 35.8187 4.9113 35.3115 5.30713C34.8044 5.70296 34.5508 6.1792 34.5508 6.73584L33.4375 6.72656C33.4375 5.92871 33.8086 5.2391 34.5508 4.65771C35.293 4.07015 36.2052 3.77637 37.2876 3.77637C38.4071 3.77637 39.2884 4.05778 39.9316 4.62061C40.5811 5.17725 40.915 5.95654 40.9336 6.9585V11.7085C40.9336 12.6795 41.0356 13.4062 41.2397 13.8887V14H40.0522ZM36.564 13.2021C37.3062 13.2021 37.9679 13.0228 38.5493 12.6641C39.1369 12.3053 39.5636 11.826 39.8296 11.2261V9.01807H37.8442C36.7371 9.03044 35.8713 9.23454 35.2466 9.63037C34.6219 10.02 34.3096 10.5581 34.3096 11.2446C34.3096 11.8075 34.5168 12.2744 34.9312 12.6455C35.3517 13.0166 35.896 13.2021 36.564 13.2021ZM43.6704 13.063L44.1621 12.4229C44.9414 11.3652 45.3898 9.81901 45.5073 7.78418L45.6836 3.96191H51.6118V13.063H52.6509V16.9502H51.5469V14H44.0044V16.9502H42.9375L42.9468 13.063H43.6704ZM44.9507 13.063H50.4985V5.00098H46.7412L46.6206 7.60791C46.5093 10.0015 45.9526 11.8198 44.9507 13.063Z" fill="black"/>
</svg>
