<svg width="15" height="15" viewBox="0 0 15 15" fill="none" xmlns="http://www.w3.org/2000/svg">
<g clip-path="url(#clip0)">
<path d="M14.6636 11.854L12.3471 9.53727C11.8857 9.07772 11.1216 9.09168 10.6442 9.56933L9.47708 10.7361C9.40335 10.6955 9.32703 10.6531 9.24679 10.608C8.5098 10.1997 7.5011 9.63996 6.43965 8.57774C5.37506 7.51328 4.81484 6.50303 4.40523 5.76556C4.36201 5.68743 4.32059 5.61211 4.2797 5.54057L5.06297 4.75846L5.44806 4.3729C5.92627 3.89455 5.93946 3.13067 5.47913 2.66978L3.16262 0.352752C2.70229 -0.107491 1.93784 -0.0935288 1.45963 0.384814L0.806758 1.04144L0.824599 1.05915C0.605682 1.33848 0.422748 1.66065 0.286615 2.00808C0.161125 2.33878 0.0829959 2.65435 0.0472711 2.97058C-0.25861 5.5064 0.900186 7.82394 4.04501 10.9688C8.39211 15.3156 11.8953 14.9872 12.0464 14.9712C12.3756 14.9319 12.691 14.8532 13.0116 14.7287C13.356 14.5942 13.678 14.4115 13.9571 14.1931L13.9714 14.2057L14.6328 13.5581C15.11 13.0798 15.1238 12.3157 14.6636 11.854Z" fill="#FFFCFC"/>
</g>
<defs>
<clipPath id="clip0">
<rect width="15" height="15" fill="white"/>
</clipPath>
</defs>
</svg>
