<svg width="26" height="28" viewBox="0 0 26 28" fill="none" xmlns="http://www.w3.org/2000/svg">
<g clip-path="url(#clip0)">
<path d="M7.8 21.7455C6.37 21.7455 5.2 22.9686 5.2 24.4636C5.2 25.9586 6.37 27.1818 7.8 27.1818C9.23 27.1818 10.4 25.9586 10.4 24.4636C10.4 22.9686 9.23 21.7455 7.8 21.7455ZM0 0V2.71818H2.6L7.28 13.0473L5.46 16.3091C5.33 16.7168 5.2 17.2605 5.2 17.6682C5.2 19.1632 6.37 20.3864 7.8 20.3864H23.4V17.6682H8.32C8.19 17.6682 8.06 17.5323 8.06 17.3964V17.2604L9.23 14.9499H18.85C19.89 14.9499 20.67 14.4063 21.06 13.5909L25.74 4.75682C26 4.485 26 4.34909 26 4.07727C26 3.26182 25.48 2.71818 24.7 2.71818H5.46L4.29 0H0ZM20.8 21.7455C19.37 21.7455 18.2 22.9686 18.2 24.4636C18.2 25.9586 19.37 27.1818 20.8 27.1818C22.23 27.1818 23.4 25.9586 23.4 24.4636C23.4 22.9686 22.23 21.7455 20.8 21.7455Z" fill="#131212" fill-opacity="0.66"/>
</g>
<defs>
<clipPath id="clip0">
<rect width="26" height="27.1818" fill="white"/>
</clipPath>
</defs>
</svg>
