<svg width="20" height="20" viewBox="0 0 20 20" fill="none" xmlns="http://www.w3.org/2000/svg">
<path d="M4.83719 18.5728C6.38245 19.5027 8.14926 19.9928 9.9646 19.9928C15.4655 19.9928 20 15.504 20 9.99634C20 4.49509 15.472 0 9.9646 0C4.47403 0 0.00717164 4.48441 0.00717164 9.99634C0.00717164 11.8359 0.497437 13.6162 1.42715 15.1627L0 20L4.83719 18.5728ZM1.17874 9.99634C1.17874 5.13031 5.12009 1.17142 9.9646 1.17142C14.8521 1.17142 18.8286 5.13031 18.8286 9.99634C18.8286 14.8625 14.8521 18.8213 9.9646 18.8213C8.28278 18.8213 6.64841 18.3449 5.23865 17.4434L5.01343 17.2995L1.73264 18.2675L2.7005 14.9866L2.55661 14.7615C1.65512 13.3514 1.17874 11.7038 1.17874 9.99634Z" fill="#DEDEDE"/>
<path d="M4.86822 8.53472C5.0617 9.5508 5.63604 11.5051 7.30825 13.1774C8.98046 14.8496 10.9348 15.4241 11.951 15.6175C13.1147 15.8391 14.8223 15.8725 15.6568 15.038L16.122 14.5728C16.3569 14.3379 16.4863 14.0256 16.4863 13.6934C16.4863 13.3612 16.3569 13.049 16.122 12.8142L14.2615 10.9537C14.0265 10.7187 13.7143 10.5895 13.3822 10.5895C13.05 10.5895 12.7378 10.7187 12.5028 10.9537L12.0377 11.4188C11.7536 11.7029 11.2172 11.7041 10.931 11.4223L9.07522 9.4887C9.07247 9.4858 9.06973 9.4829 9.06683 9.48016C8.78225 9.19558 8.78225 8.73248 9.06683 8.4479L9.53191 7.98281C10.0181 7.49667 10.0181 6.71008 9.53191 6.22408L7.67141 4.36358C7.18664 3.87881 6.39776 3.87881 5.91284 4.36358L5.44775 4.82882V4.82867C4.7817 5.49487 4.55969 6.91485 4.86822 8.53472ZM6.27615 5.65722C6.76443 5.18008 6.73834 5.17092 6.7922 5.17092C6.81066 5.17092 6.82913 5.17794 6.84316 5.19198C8.80361 7.16296 8.72488 7.04714 8.72488 7.1036C8.72488 7.12328 8.7177 7.14053 8.70382 7.15456L8.23858 7.61965C7.49776 8.36047 7.49487 9.55965 8.23385 10.3038L10.0907 12.2386C10.0936 12.2414 10.0963 12.2443 10.0992 12.2472C10.8399 12.9878 12.123 12.9903 12.8661 12.2472L13.3312 11.7821C13.3593 11.754 13.4051 11.754 13.4331 11.7821C15.3936 13.7529 15.3148 13.6371 15.3148 13.6936C15.3148 13.7134 15.3077 13.7305 15.2938 13.7445L14.8285 14.2096C14.5098 14.5284 13.4945 14.7191 12.1702 14.4669C11.2864 14.2984 9.587 13.7995 8.13665 12.3491C6.6863 10.8988 6.18734 9.19939 6.01904 8.31561C5.76666 6.99129 5.95739 5.97582 6.27615 5.65722Z" fill="#DEDEDE"/>
</svg>
