<svg width="16" height="28" viewBox="0 0 16 28" fill="none" xmlns="http://www.w3.org/2000/svg">
<path d="M8 0.25293C3.5888 0.25293 0 4.50662 0 9.73508C0 11.5016 0.412845 13.2256 1.19418 14.7212L7.54462 26.8508C7.66627 27.0832 7.88058 27.2244 8.11107 27.2244C8.11284 27.2244 8.11458 27.2244 8.11636 27.2244C8.34885 27.2222 8.5636 27.0767 8.68302 26.8402L14.8716 14.5931C15.6098 13.1291 16 11.4492 16 9.73508C16 4.50662 12.4112 0.25293 8 0.25293ZM13.7274 13.7817L8.10098 24.9163L2.32742 13.8886C1.67707 12.6437 1.32444 11.2074 1.32444 9.73508C1.32444 5.37803 4.324 1.82275 8 1.82275C11.676 1.82275 14.6711 5.37803 14.6711 9.73508C14.6711 11.1638 14.3417 12.5633 13.7274 13.7817Z" fill="white"/>
<path d="M8.00002 4.99707C5.79441 4.99707 4 7.12392 4 9.73814C4 12.3357 5.76521 14.4792 8.00002 14.4792C10.2624 14.4792 12 12.3071 12 9.73814C12 7.12392 10.2056 4.99707 8.00002 4.99707ZM8.00002 12.9094C6.52192 12.9094 5.32445 11.4853 5.32445 9.73814C5.32445 7.99532 6.52961 6.56689 8.00002 6.56689C9.47042 6.56689 10.6711 7.99532 10.6711 9.73814C10.6711 11.4598 9.50153 12.9094 8.00002 12.9094Z" fill="white"/>
</svg>
