<svg width="12" height="18" viewBox="0 0 12 18" fill="none" xmlns="http://www.w3.org/2000/svg">
<path d="M0.295536 14.6721H2.36375V17.0018C2.36375 17.1151 2.39135 17.2079 2.44688 17.2805C2.50225 17.3535 2.57305 17.39 2.65929 17.39H4.20111C4.28113 17.39 4.35037 17.3535 4.40885 17.2805C4.46734 17.2079 4.49649 17.1151 4.49649 17.0018V14.6721H9.15911C9.24517 14.6721 9.31599 14.636 9.37149 14.563C9.42705 14.4901 9.45462 14.3972 9.45462 14.2839V12.7309C9.45462 12.6182 9.42705 12.5247 9.37149 12.4522C9.31614 12.3792 9.24517 12.3427 9.15911 12.3427H4.49634V10.911H7.63553C8.86653 10.911 9.87123 10.4181 10.6501 9.43096C11.4286 8.44482 11.8181 7.17096 11.8181 5.60932C11.8181 4.04872 11.4286 2.77483 10.6501 1.78768C9.87138 0.801509 8.8665 0.307617 7.63553 0.307617H2.65913C2.57287 0.307617 2.50223 0.344084 2.44673 0.416649C2.39135 0.489616 2.3636 0.583043 2.3636 0.695758V8.32718H0.295536C0.209298 8.32718 0.138632 8.36553 0.0831282 8.44234C0.0277774 8.51919 0 8.61018 0 8.71529V10.5228C0 10.6362 0.027599 10.729 0.0831282 10.802C0.138657 10.875 0.209146 10.911 0.295536 10.911H2.36375V12.3427H0.295536C0.209298 12.3427 0.138632 12.3792 0.0831282 12.4522C0.0277774 12.5247 0 12.618 0 12.7309V14.2839C0 14.3972 0.027599 14.4901 0.0831282 14.563C0.138632 14.636 0.209273 14.6721 0.295536 14.6721ZM4.49634 2.89207H7.45088C8.10326 2.89207 8.62945 3.14271 9.02968 3.64417C9.4297 4.14567 9.6298 4.80103 9.6298 5.60952C9.6298 6.41842 9.4297 7.07399 9.02968 7.57488C8.62945 8.07677 8.10324 8.32742 7.45088 8.32742H4.49634V2.89207Z" fill="#232323" fill-opacity="0.9"/>
</svg>
